<svg width="79" height="154" viewBox="0 0 79 154" fill="none" xmlns="http://www.w3.org/2000/svg">
<path d="M78.3446 65.3372C73.6446 26.5472 41.5446 0.277191 41.5446 0.277191C41.5446 0.277191 5.08455 30.7372 0.394554 69.5272C-3.58545 102.417 23.4146 121.857 42.2246 121.197C42.6946 121.177 43.2246 115.277 42.5546 111.627C41.6746 106.837 38.7046 93.8572 37.9346 84.2472C36.7146 68.9672 39.4646 48.4272 40.3946 45.3772C39.2546 47.8572 33.1846 61.5672 31.9946 75.0072C29.8346 99.2772 38.3946 109.307 34.9646 108.667C29.6846 107.677 9.82455 93.7372 8.89455 66.7572C7.56455 28.4772 41.3646 9.61719 41.3646 9.61719C41.3646 9.61719 71.3646 27.8772 71.4646 66.1672C71.5846 116.247 32.1946 136.317 32.1946 136.317L31.9846 153.207C38.9246 154.527 83.1446 104.917 78.3446 65.3372Z" fill="#00983A"/>
</svg>
