<svg width="180" height="54" viewBox="0 0 180 54" fill="none" xmlns="http://www.w3.org/2000/svg">
<g clipPath="url(#clip0_1169_9420)">
<path d="M48.4555 14.3409C51.8758 14.3409 54.5866 15.4316 56.5773 17.613C58.5716 19.7943 59.567 22.8334 59.567 26.7266V29.9492H42.7092C42.7727 32.4341 43.4151 34.3543 44.6399 35.7132C45.8647 37.0721 47.559 37.7534 49.7262 37.7534C51.3569 37.7534 52.8323 37.5769 54.1524 37.2239C55.4726 36.8709 56.8209 36.3591 58.201 35.6885V40.7748C56.9444 41.4136 55.642 41.8831 54.2936 42.1831C52.9418 42.4867 51.3252 42.6349 49.4438 42.6349C46.9625 42.6349 44.7599 42.1231 42.8292 41.0995C40.8985 40.0759 39.3913 38.5228 38.3077 36.4403C37.2241 34.3578 36.684 31.7741 36.684 28.6856C36.684 24.0193 37.7676 20.4614 39.9349 18.0118C42.1021 15.5622 44.9435 14.3374 48.4591 14.3374L48.4555 14.3409ZM48.4555 19.0248C46.8531 19.0248 45.5577 19.5719 44.5693 20.6626C43.581 21.7533 43.0092 23.3734 42.8504 25.523H53.8207C53.7889 23.6417 53.3406 22.0921 52.4794 20.8638C51.6146 19.639 50.2733 19.0248 48.452 19.0248H48.4555Z" fill="white"/>
<path d="M71.4373 42.1373L61.7378 14.8457H67.9994L73.0857 30.6058C73.3999 31.58 73.6893 32.653 73.9575 33.8284C74.2223 35.0038 74.3882 35.9921 74.4517 36.8004H74.6388C74.7341 35.9603 74.9211 34.9614 75.2035 33.8037C75.4859 32.6459 75.7824 31.58 76.1001 30.6058L81.1863 14.8457H87.448L77.7484 42.1373H71.4373Z" fill="white"/>
<path d="M101.433 14.341C104.729 14.341 107.232 15.114 108.944 16.6565C110.656 18.2025 111.51 20.5851 111.51 23.8077V42.1373H107.32L106.145 38.3606H105.958C104.86 39.8395 103.699 40.9196 102.474 41.6079C101.249 42.2962 99.5866 42.6386 97.4829 42.6386C95.1921 42.6386 93.2932 41.9503 91.786 40.5737C90.2788 39.1971 89.527 37.0652 89.527 34.1779C89.527 31.2906 90.4941 29.2434 92.4249 27.8315C94.3556 26.4196 97.2817 25.6325 101.207 25.4631L105.633 25.3113V23.9524C105.633 22.2405 105.241 21.0051 104.454 20.2497C103.67 19.4944 102.569 19.1167 101.157 19.1167C99.869 19.1167 98.6371 19.3179 97.4617 19.7203C96.2828 20.1227 95.1145 20.5921 93.9532 21.1286L92.0684 16.6989C93.3249 15.9929 94.7615 15.4247 96.3781 14.987C97.9947 14.5528 99.6819 14.334 101.44 14.334L101.433 14.341ZM102.516 29.3458C99.9113 29.4481 98.1041 29.9246 97.1017 30.7823C96.0957 31.64 95.5945 32.7872 95.5945 34.2308C95.5945 35.5404 95.9475 36.4722 96.6534 37.0264C97.3594 37.5805 98.2947 37.8558 99.456 37.8558C101.182 37.8558 102.643 37.3264 103.836 36.271C105.029 35.2121 105.626 33.6449 105.626 31.5624V29.2469L102.516 29.3493V29.3458Z" fill="white"/>
<path d="M129.649 38.8658C129.649 40.0341 129.183 40.9236 128.248 41.5271C127.312 42.1342 125.978 42.4343 124.238 42.4343C123.327 42.4343 122.551 42.3778 121.905 42.2648C121.259 42.1519 120.631 41.9719 120.024 41.7319V39.4446C120.662 39.7164 121.368 39.9423 122.141 40.1294C122.914 40.3165 123.645 40.4082 124.333 40.4082C125.163 40.4082 125.763 40.2953 126.13 40.0659C126.497 39.8364 126.681 39.5329 126.681 39.1481C126.681 38.9187 126.61 38.7175 126.465 38.5375C126.32 38.361 126.038 38.1633 125.615 37.948C125.191 37.7327 124.566 37.4715 123.733 37.1574C122.904 36.8715 122.212 36.5785 121.661 36.2714C121.111 35.9644 120.694 35.6043 120.415 35.1913C120.136 34.7784 119.995 34.2454 119.995 33.5889C119.995 32.5476 120.454 31.7605 121.372 31.2275C122.29 30.6945 123.514 30.4263 125.046 30.4263C125.844 30.4263 126.599 30.4969 127.309 30.6416C128.018 30.7828 128.735 30.9981 129.451 31.284L128.495 33.2712C127.888 33.0418 127.298 32.8512 126.723 32.6923C126.148 32.537 125.558 32.4558 124.951 32.4558C123.627 32.4558 122.964 32.7912 122.964 33.4618C122.964 33.7054 123.048 33.9101 123.214 34.083C123.38 34.2525 123.677 34.436 124.1 34.6266C124.524 34.8172 125.127 35.0502 125.907 35.3219C126.673 35.5937 127.337 35.8761 127.895 36.1655C128.452 36.4585 128.883 36.8185 129.187 37.2456C129.49 37.6727 129.642 38.2163 129.642 38.8693L129.649 38.8658Z" fill="white"/>
<path d="M137.718 30.4224C139.394 30.4224 140.665 30.7506 141.537 31.4071C142.405 32.0637 142.843 33.0732 142.843 34.4427V42.2256H140.711L140.111 40.6232H140.016C139.458 41.2514 138.865 41.7103 138.244 42.0033C137.623 42.2962 136.775 42.441 135.706 42.441C134.541 42.441 133.574 42.148 132.808 41.5656C132.042 40.9797 131.657 40.0761 131.657 38.8513C131.657 37.6265 132.148 36.7546 133.129 36.1581C134.11 35.5581 135.6 35.2263 137.594 35.1521L139.846 35.0886V34.5097C139.846 33.7826 139.645 33.2602 139.246 32.939C138.847 32.6178 138.29 32.459 137.57 32.459C136.913 32.459 136.288 32.5437 135.688 32.7167C135.088 32.8896 134.495 33.0873 133.906 33.3167L132.949 31.4354C133.588 31.1354 134.319 30.8953 135.141 30.7083C135.964 30.5247 136.821 30.4294 137.714 30.4294L137.718 30.4224ZM138.268 36.7934C136.945 36.8358 136.027 37.0405 135.515 37.4041C135.003 37.7676 134.749 38.2547 134.749 38.8689C134.749 39.4266 134.929 39.8219 135.289 40.0549C135.649 40.2914 136.122 40.4079 136.715 40.4079C137.594 40.4079 138.336 40.182 138.943 39.7337C139.55 39.2854 139.853 38.6183 139.853 37.7359V36.7511L138.272 36.7934H138.268Z" fill="white"/>
<path d="M149.641 42.2223H146.623V25.9751H149.641V42.2223Z" fill="white"/>
<path d="M165.013 30.6343V42.2222H162.641L162.235 40.7257H162.09C161.66 41.3257 161.081 41.7599 160.354 42.0316C159.627 42.3034 158.857 42.4376 158.042 42.4376C156.588 42.4376 155.451 42.1022 154.629 41.4316C153.806 40.761 153.397 39.6844 153.397 38.2019V30.6343H156.415V37.6689C156.415 39.395 157.212 40.2562 158.808 40.2562C160.022 40.2562 160.855 39.9174 161.31 39.2397C161.766 38.562 161.992 37.5842 161.992 36.2994V30.6343H165.009H165.013Z" fill="white"/>
<path d="M173.152 42.4376C171.635 42.4376 170.413 41.9328 169.489 40.9198C168.564 39.9068 168.101 38.4172 168.101 36.4512C168.101 34.4852 168.571 32.9533 169.513 31.9403C170.456 30.9273 171.691 30.4225 173.223 30.4225C174.18 30.4225 174.967 30.5849 175.581 30.9131C176.195 31.2414 176.686 31.6402 177.053 32.1097H177.197C177.148 31.9085 177.102 31.605 177.053 31.192C177.003 30.779 176.982 30.3943 176.982 30.0378V25.9751H180V42.2223H177.653L177.102 40.7045H176.982C176.615 41.1881 176.128 41.5975 175.521 41.9328C174.914 42.2681 174.123 42.434 173.152 42.434V42.4376ZM174.063 40.2562C175.182 40.2562 175.966 39.9703 176.421 39.402C176.876 38.8338 177.113 37.969 177.127 36.8148V36.4724C177.127 35.2335 176.908 34.2805 176.467 33.6169C176.029 32.9533 175.21 32.6215 174.014 32.6215C173.089 32.6215 172.383 32.9604 171.896 33.6381C171.409 34.3158 171.165 35.2652 171.165 36.4936C171.165 37.7219 171.412 38.6537 171.906 39.2926C172.401 39.935 173.121 40.2562 174.063 40.2562Z" fill="white"/>
<path d="M14.2564 15.9156C14.2988 15.8238 14.3235 15.7744 14.3235 15.7744C14.3058 15.7744 14.2846 15.8309 14.2564 15.9156Z" fill="white"/>
<path d="M27.6551 22.9642C25.9961 9.27249 14.6658 0 14.6658 0C14.6658 0 1.79658 10.7514 0.141157 24.4431C-1.26366 36.0522 8.2665 42.914 14.9058 42.681C15.0717 42.6739 15.2588 40.5914 15.0223 39.3031C14.7117 37.6124 13.6634 33.0308 13.3916 29.6388C12.961 24.2454 13.9317 16.9955 14.2599 15.9189C13.8575 16.7943 11.715 21.6335 11.295 26.3774C10.5326 34.9439 13.554 38.4842 12.3433 38.2583C10.4796 37.9089 3.46965 32.9885 3.14139 23.4654C2.67194 9.95372 14.6023 3.29673 14.6023 3.29673C14.6023 3.29673 25.1914 9.74194 25.2267 23.2571C25.269 40.9338 11.3656 48.0179 11.3656 48.0179L11.2914 53.9795C13.741 54.4454 29.3493 36.9347 27.6551 22.9642Z" fill="white"/>
</g>
<defs>
<clipPath id="clip0_1169_9420">
<rect width="180" height="53.9866" fill="white"/>
</clipPath>
</defs>
</svg>
