<svg width="29" height="29" viewBox="0 0 29 29" fill="none" xmlns="http://www.w3.org/2000/svg">
<g clip-path="url(#clip0_986_4595)">
<path d="M20.2421 25.6855C18.0439 25.7488 15.8576 25.3403 13.8306 24.4876C11.8035 23.6348 9.98273 22.3575 8.49088 20.7418C6.88035 19.2509 5.60808 17.4322 4.75981 15.4081C3.91154 13.384 3.50698 11.2016 3.57338 9.00801C3.56416 8.12682 3.7687 7.25654 4.1695 6.47171C4.57029 5.68689 5.15538 5.01094 5.87463 4.50176L7.05588 3.67051C7.36284 3.45906 7.70986 3.3127 8.07554 3.24047C8.44122 3.16824 8.81782 3.17166 9.18213 3.25051C9.5467 3.33278 9.89033 3.4895 10.1915 3.71084C10.4926 3.93219 10.7448 4.21337 10.9321 4.53676L12.9359 8.03676C13.2662 8.60665 13.3756 9.27805 13.2433 9.92334C13.1111 10.5686 12.7463 11.1428 12.2184 11.5368L10.2934 12.9805C10.837 14.338 11.626 15.5838 12.6209 16.6555C13.6918 17.6514 14.9378 18.4405 16.2959 18.983L17.7396 17.058C18.1348 16.5317 18.7089 16.1681 19.3536 16.0359C19.9984 15.9038 20.6692 16.0121 21.2396 16.3405L24.7396 18.3443C25.063 18.5316 25.3443 18.7837 25.5656 19.0849C25.787 19.386 25.9437 19.7297 26.0259 20.0943C26.1069 20.4584 26.1113 20.8355 26.039 21.2015C25.9667 21.5675 25.8192 21.9145 25.6059 22.2205L24.7834 23.393C24.2844 24.1045 23.6217 24.6858 22.8512 25.0878C22.0807 25.4898 21.2249 25.7008 20.3559 25.703L20.2421 25.6855ZM8.63963 5.05301C8.47013 5.04985 8.30424 5.10207 8.16713 5.20176L6.99463 6.02426C6.52572 6.34744 6.14276 6.78016 5.87897 7.28487C5.61518 7.78958 5.47853 8.35103 5.48088 8.92051C5.40283 10.8835 5.75384 12.84 6.50944 14.6534C7.26504 16.4669 8.40706 18.0937 9.85588 19.4205C11.1629 20.854 12.765 21.9874 14.5519 22.7426C16.3388 23.4979 18.2681 23.8571 20.2071 23.7955C20.8032 23.8099 21.394 23.6798 21.9288 23.4161C22.4637 23.1525 22.9267 22.7633 23.2784 22.2818L24.1009 21.1093C24.169 21.0176 24.2161 20.9121 24.2387 20.8002C24.2614 20.6882 24.2592 20.5727 24.2321 20.4618C24.2071 20.3503 24.1592 20.2453 24.0914 20.1534C24.0236 20.0615 23.9375 19.9848 23.8384 19.928L20.3384 17.9243C20.1662 17.8228 19.9625 17.789 19.7668 17.8295C19.5711 17.8699 19.3975 17.9817 19.2796 18.143L16.9696 21.223L16.2871 20.9343C14.4302 20.3065 12.7211 19.306 11.2646 17.9943C9.91984 16.5402 8.88923 14.8245 8.23713 12.9543L8.04463 12.333L11.0546 10.0668C11.216 9.94891 11.3277 9.77526 11.3682 9.57957C11.4086 9.38389 11.3748 9.18016 11.2734 9.00801L9.26963 5.50801C9.21287 5.40892 9.13609 5.32274 9.0442 5.25495C8.95231 5.18716 8.8473 5.13925 8.73588 5.11426C8.70574 5.09094 8.67352 5.07043 8.63963 5.05301Z" fill="white"/>
<path d="M20.2422 25.6858C18.044 25.7491 15.8577 25.3406 13.8306 24.4878C11.8036 23.635 9.98279 22.3577 8.49094 20.742C6.88041 19.2512 5.60814 17.4324 4.75987 15.4083C3.9116 13.3843 3.50704 11.2019 3.57344 9.00826C3.56422 8.12707 3.76877 7.25678 4.16956 6.47196C4.57035 5.68714 5.15544 5.01118 5.87469 4.50201L7.05594 3.67076C7.3629 3.4593 7.70992 3.31295 8.0756 3.24072C8.44128 3.16848 8.81788 3.1719 9.18219 3.25076C9.54676 3.33303 9.89039 3.48975 10.1915 3.71109C10.4927 3.93243 10.7448 4.21362 10.9322 4.53701L12.9359 8.03701C13.2663 8.6069 13.3757 9.2783 13.2434 9.92358C13.1111 10.5689 12.7464 11.1431 12.2184 11.537L10.2934 12.9808C10.8371 14.3383 11.6261 15.584 12.6209 16.6558C13.6919 17.6516 14.9379 18.4407 16.2959 18.9833L17.7397 17.0583C18.1348 16.5319 18.7089 16.1684 19.3537 16.0362C19.9985 15.904 20.6693 16.0123 21.2397 16.3408L24.7397 18.3445C25.0631 18.5318 25.3443 18.784 25.5657 19.0851C25.787 19.3863 25.9437 19.7299 26.0259 20.0945C26.1069 20.4587 26.1114 20.8357 26.0391 21.2017C25.9668 21.5677 25.8193 21.9147 25.6059 22.2208L24.7834 23.3933C24.2844 24.1048 23.6218 24.686 22.8513 25.088C22.0808 25.49 21.225 25.701 20.3559 25.7033L20.2422 25.6858ZM8.63969 5.05326C8.47019 5.05009 8.3043 5.10232 8.16719 5.20201L6.99469 6.02451C6.52578 6.34769 6.14282 6.7804 5.87903 7.28511C5.61524 7.78982 5.47859 8.35127 5.48094 8.92076C5.40289 10.8838 5.7539 12.8402 6.5095 14.6536C7.26511 16.4671 8.40712 18.0939 9.85594 19.4208C11.163 20.8543 12.7651 21.9876 14.552 22.7429C16.3389 23.4981 18.2682 23.8573 20.2072 23.7958C20.8033 23.8102 21.394 23.68 21.9289 23.4164C22.4637 23.1528 22.9268 22.7636 23.2784 22.282L24.1009 21.1095C24.1691 21.0179 24.2161 20.9123 24.2388 20.8004C24.2615 20.6885 24.2592 20.5729 24.2322 20.462C24.2072 20.3506 24.1593 20.2456 24.0915 20.1537C24.0237 20.0618 23.9375 19.985 23.8384 19.9283L20.3384 17.9245C20.1663 17.8231 19.9626 17.7893 19.7669 17.8297C19.5712 17.8701 19.3975 17.9819 19.2797 18.1433L16.9697 21.2233L16.2872 20.9345C14.4303 20.3067 12.7212 19.3063 11.2647 17.9945C9.9199 16.5404 8.88929 14.8247 8.23719 12.9545L8.04469 12.3333L11.0547 10.067C11.216 9.94915 11.3278 9.7755 11.3682 9.57982C11.4087 9.38413 11.3749 9.18041 11.2734 9.00826L9.26969 5.50826C9.21293 5.40917 9.13616 5.32299 9.04426 5.25519C8.95237 5.1874 8.84736 5.13949 8.73594 5.11451C8.7058 5.09118 8.67358 5.07068 8.63969 5.05326Z" fill="white"/>
<path d="M20.2422 25.6858C18.044 25.7491 15.8577 25.3406 13.8306 24.4878C11.8036 23.635 9.98279 22.3577 8.49094 20.742C6.88041 19.2512 5.60814 17.4324 4.75987 15.4083C3.9116 13.3843 3.50704 11.2019 3.57344 9.00826C3.56422 8.12707 3.76877 7.25678 4.16956 6.47196C4.57035 5.68714 5.15544 5.01118 5.87469 4.50201L7.05594 3.67076C7.3629 3.4593 7.70992 3.31295 8.0756 3.24072C8.44128 3.16848 8.81788 3.1719 9.18219 3.25076C9.54676 3.33303 9.89039 3.48975 10.1915 3.71109C10.4927 3.93243 10.7448 4.21362 10.9322 4.53701L12.9359 8.03701C13.2663 8.6069 13.3757 9.2783 13.2434 9.92358C13.1111 10.5689 12.7464 11.1431 12.2184 11.537L10.2934 12.9808C10.8371 14.3383 11.6261 15.584 12.6209 16.6558C13.6919 17.6516 14.9379 18.4407 16.2959 18.9833L17.7397 17.0583C18.1348 16.5319 18.7089 16.1684 19.3537 16.0362C19.9985 15.904 20.6693 16.0123 21.2397 16.3408L24.7397 18.3445C25.0631 18.5318 25.3443 18.784 25.5657 19.0851C25.787 19.3863 25.9437 19.7299 26.0259 20.0945C26.1069 20.4587 26.1114 20.8357 26.0391 21.2017C25.9668 21.5677 25.8193 21.9147 25.6059 22.2208L24.7834 23.3933C24.2844 24.1048 23.6218 24.686 22.8513 25.088C22.0808 25.49 21.225 25.701 20.3559 25.7033L20.2422 25.6858ZM8.63969 5.05326C8.47019 5.05009 8.3043 5.10232 8.16719 5.20201L6.99469 6.02451C6.52578 6.34769 6.14282 6.7804 5.87903 7.28511C5.61524 7.78982 5.47859 8.35127 5.48094 8.92076C5.40289 10.8838 5.7539 12.8402 6.5095 14.6536C7.26511 16.4671 8.40712 18.0939 9.85594 19.4208C11.163 20.8543 12.7651 21.9876 14.552 22.7429C16.3389 23.4981 18.2682 23.8573 20.2072 23.7958C20.8033 23.8102 21.394 23.68 21.9289 23.4164C22.4637 23.1528 22.9268 22.7636 23.2784 22.282L24.1009 21.1095C24.1691 21.0179 24.2161 20.9123 24.2388 20.8004C24.2615 20.6885 24.2592 20.5729 24.2322 20.462C24.2072 20.3506 24.1593 20.2456 24.0915 20.1537C24.0237 20.0618 23.9375 19.985 23.8384 19.9283L20.3384 17.9245C20.1663 17.8231 19.9626 17.7893 19.7669 17.8297C19.5712 17.8701 19.3975 17.9819 19.2797 18.1433L16.9697 21.2233L16.2872 20.9345C14.4303 20.3067 12.7212 19.3063 11.2647 17.9945C9.9199 16.5404 8.88929 14.8247 8.23719 12.9545L8.04469 12.3333L11.0547 10.067C11.216 9.94915 11.3278 9.7755 11.3682 9.57982C11.4087 9.38413 11.3749 9.18041 11.2734 9.00826L9.26969 5.50826C9.21293 5.40917 9.13616 5.32299 9.04426 5.25519C8.95237 5.1874 8.84736 5.13949 8.73594 5.11451C8.7058 5.09118 8.67358 5.07068 8.63969 5.05326Z" fill="white"/>
<path d="M20.4404 25.9912C18.2422 26.0545 16.0559 25.646 14.0289 24.7932C12.0018 23.9404 10.181 22.6632 8.68918 21.0474C7.07865 19.5566 5.80638 17.7378 4.95812 15.7138C4.10985 13.6897 3.70528 11.5073 3.77168 9.31368C3.76246 8.43249 3.96701 7.5622 4.3678 6.77738C4.76859 5.99256 5.35368 5.3166 6.07293 4.80743L7.25418 3.97618C7.56114 3.76472 7.90816 3.61837 8.27384 3.54614C8.63952 3.4739 9.01612 3.47732 9.38043 3.55618C9.745 3.63845 10.0886 3.79517 10.3898 4.01651C10.6909 4.23785 10.9431 4.51904 11.1304 4.84243L13.1342 8.34243C13.4645 8.91232 13.5739 9.58372 13.4416 10.229C13.3094 10.8743 12.9446 11.4485 12.4167 11.8424L10.4917 13.2862C11.0353 14.6437 11.8243 15.8895 12.8192 16.9612C13.8902 17.957 15.1361 18.7461 16.4942 19.2887L17.9379 17.3637C18.3331 16.8373 18.9072 16.4738 19.5519 16.3416C20.1967 16.2094 20.8676 16.3178 21.4379 16.6462L24.9379 18.6499C25.2614 18.8372 25.5426 19.0894 25.7639 19.3905C25.9853 19.6917 26.142 20.0353 26.2242 20.3999C26.3052 20.7641 26.3096 21.1411 26.2373 21.5071C26.165 21.8731 26.0175 22.2201 25.8042 22.5262L24.9817 23.6987C24.4827 24.4102 23.82 24.9914 23.0495 25.3934C22.279 25.7954 21.4232 26.0064 20.5542 26.0087L20.4404 25.9912ZM8.83793 5.35868C8.66844 5.35551 8.50254 5.40774 8.36543 5.50743L7.19293 6.32993C6.72402 6.65311 6.34106 7.08582 6.07727 7.59053C5.81348 8.09524 5.67683 8.65669 5.67918 9.22618C5.60113 11.1892 5.95214 13.1456 6.70774 14.9591C7.46335 16.7725 8.60536 18.3994 10.0542 19.7262C11.3612 21.1597 12.9633 22.2931 14.7502 23.0483C16.5372 23.8036 18.4665 24.1627 20.4054 24.1012C21.0015 24.1156 21.5923 23.9854 22.1271 23.7218C22.662 23.4582 23.125 23.069 23.4767 22.5874L24.2992 21.4149C24.3673 21.3233 24.4144 21.2177 24.4371 21.1058C24.4597 20.9939 24.4575 20.8784 24.4304 20.7674C24.4054 20.656 24.3575 20.551 24.2897 20.4591C24.222 20.3672 24.1358 20.2904 24.0367 20.2337L20.5367 18.2299C20.3645 18.1285 20.1608 18.0947 19.9651 18.1351C19.7694 18.1756 19.5958 18.2873 19.4779 18.4487L17.1679 21.5287L16.4854 21.2399C14.6285 20.6121 12.9194 19.6117 11.4629 18.2999C10.1181 16.8458 9.08753 15.1301 8.43543 13.2599L8.24293 12.6387L11.2529 10.3724C11.4143 10.2546 11.5261 10.0809 11.5665 9.88524C11.6069 9.68955 11.5731 9.48583 11.4717 9.31368L9.46793 5.81368C9.41117 5.71459 9.3344 5.62841 9.2425 5.56061C9.15061 5.49282 9.04561 5.44491 8.93418 5.41993C8.90404 5.3966 8.87182 5.3761 8.83793 5.35868Z" fill="white"/>
</g>
<defs>
<clipPath id="clip0_986_4595">
<rect width="28" height="28" fill="white" transform="translate(0.764648 0.494385)"/>
</clipPath>
</defs>
</svg>
