<svg width="29" height="29" viewBox="0 0 29 29" fill="none" xmlns="http://www.w3.org/2000/svg">
<g clip-path="url(#clip0_986_4592)">
<path d="M25.0984 23.4106L19.1397 17.4256C20.2798 15.9635 20.8961 14.161 20.8897 12.3069C20.8897 10.6628 20.4021 9.05569 19.4887 7.68871C18.5754 6.32173 17.2771 5.25629 15.7582 4.62714C14.2393 3.99799 12.5679 3.83337 10.9555 4.15411C9.343 4.47485 7.86185 5.26654 6.69933 6.42906C5.5368 7.59159 4.74511 9.07273 4.42437 10.6852C4.10363 12.2977 4.26825 13.969 4.8974 15.4879C5.52656 17.0069 6.59199 18.3051 7.95898 19.2185C9.32596 20.1319 10.9331 20.6194 12.5772 20.6194C14.4312 20.6258 16.2338 20.0095 17.6959 18.8694L23.6809 24.8456L25.0984 23.4106ZM12.5772 18.6069C10.907 18.6046 9.30591 17.9401 8.12494 16.7591C6.94396 15.5781 6.27947 13.977 6.27715 12.3069C6.27947 10.6367 6.94396 9.03565 8.12494 7.85467C9.30591 6.6737 10.907 6.0092 12.5772 6.00689C14.2473 6.0092 15.8484 6.6737 17.0294 7.85467C18.2103 9.03565 18.8748 10.6367 18.8772 12.3069C18.8748 13.977 18.2103 15.5781 17.0294 16.7591C15.8484 17.9401 14.2473 18.6046 12.5772 18.6069Z" fill="white"/>
</g>
<defs>
<clipPath id="clip0_986_4592">
<rect width="28" height="28" fill="white" transform="translate(0.764648 0.494385)"/>
</clipPath>
</defs>
</svg>
